<svg id="a1029a5b-c5b3-4766-aabf-32c7178430aa" data-name="Layer 1" xmlns="http://www.w3.org/2000/svg" viewBox="0 0 128.15 64.69"><path d="M225.4,230.73a1.57,1.57,0,0,1-.35.4.77.77,0,0,1-.47.13,1.11,1.11,0,0,1-.55-.16l-.67-.36a4.43,4.43,0,0,0-.85-.36,3.37,3.37,0,0,0-1.09-.17,2.31,2.31,0,0,0-1.58.46,1.54,1.54,0,0,0-.52,1.21,1.14,1.14,0,0,0,.32.82,2.62,2.62,0,0,0,.81.55,8.58,8.58,0,0,0,1.16.43l1.33.43a11.09,11.09,0,0,1,1.33.57,4.51,4.51,0,0,1,1.16.82,4,4,0,0,1,.82,1.22,4.46,4.46,0,0,1,.31,1.73,5.6,5.6,0,0,1-.39,2.1,5.05,5.05,0,0,1-1.13,1.71,5.22,5.22,0,0,1-1.83,1.14,6.75,6.75,0,0,1-2.46.42,8.11,8.11,0,0,1-1.54-.15,9.5,9.5,0,0,1-1.52-.44,8.85,8.85,0,0,1-1.38-.68,5.91,5.91,0,0,1-1.12-.86l1.11-1.76a.81.81,0,0,1,.34-.32.91.91,0,0,1,.48-.13,1.25,1.25,0,0,1,.67.21l.77.47a6.52,6.52,0,0,0,1,.47,3.71,3.71,0,0,0,1.31.21,2.51,2.51,0,0,0,1.59-.45A1.72,1.72,0,0,0,223,239a1.36,1.36,0,0,0-.31-.92,2.31,2.31,0,0,0-.82-.59,6.43,6.43,0,0,0-1.15-.41l-1.33-.4a9.33,9.33,0,0,1-1.32-.53,4.31,4.31,0,0,1-1.15-.84,3.81,3.81,0,0,1-.82-1.29,5.06,5.06,0,0,1-.31-1.91,4.44,4.44,0,0,1,.37-1.78,4.5,4.5,0,0,1,1.07-1.54,5.25,5.25,0,0,1,1.75-1.09,6.47,6.47,0,0,1,2.37-.4,8.61,8.61,0,0,1,1.45.11,7.9,7.9,0,0,1,2.53.89,5.17,5.17,0,0,1,1,.72Z" transform="translate(-204.17 -217.27)" style="fill:#231f20"/><path d="M236.39,243.64a1.64,1.64,0,0,1-.74-.13,1,1,0,0,1-.42-.56l-.24-.63c-.29.24-.57.46-.83.65a6.27,6.27,0,0,1-.83.47,4.49,4.49,0,0,1-.92.29,5.85,5.85,0,0,1-1.07.09,4.89,4.89,0,0,1-1.43-.2,3.17,3.17,0,0,1-1.1-.61,2.78,2.78,0,0,1-.7-1,3.7,3.7,0,0,1-.24-1.38,2.85,2.85,0,0,1,.31-1.26,3.14,3.14,0,0,1,1.08-1.18,6.94,6.94,0,0,1,2.07-.89,12.6,12.6,0,0,1,3.28-.35v-.5a2.12,2.12,0,0,0-.42-1.47,1.49,1.49,0,0,0-1.18-.46,3.11,3.11,0,0,0-1,.13,5.08,5.08,0,0,0-.7.3,4.69,4.69,0,0,1-.59.3,1.67,1.67,0,0,1-.69.14,1.09,1.09,0,0,1-.61-.17,1.23,1.23,0,0,1-.39-.43l-.63-1.08a7,7,0,0,1,2.32-1.38,8.14,8.14,0,0,1,2.73-.45,5.13,5.13,0,0,1,1.89.34,3.94,3.94,0,0,1,1.42.95,4.09,4.09,0,0,1,.9,1.44,5.12,5.12,0,0,1,.31,1.82v7.21Zm-4-2.1a2.81,2.81,0,0,0,1.17-.23,3.66,3.66,0,0,0,1-.76V239a8.72,8.72,0,0,0-1.7.14,4.3,4.3,0,0,0-1.06.33,1.33,1.33,0,0,0-.54.46,1.09,1.09,0,0,0-.15.56,1,1,0,0,0,.33.84A1.55,1.55,0,0,0,232.43,241.54Z" transform="translate(-204.17 -217.27)" style="fill:#231f20"/><path d="M248.39,243.64a1.58,1.58,0,0,1-.74-.13,1,1,0,0,1-.42-.56l-.25-.63c-.29.24-.56.46-.83.65a5.69,5.69,0,0,1-.83.47,4.6,4.6,0,0,1-.91.29,5.89,5.89,0,0,1-1.08.09,4.94,4.94,0,0,1-1.43-.2,3.17,3.17,0,0,1-1.1-.61,2.64,2.64,0,0,1-.69-1,3.5,3.5,0,0,1-.25-1.38,3,3,0,0,1,.31-1.26,3.14,3.14,0,0,1,1.08-1.18,7.18,7.18,0,0,1,2.07-.89,12.68,12.68,0,0,1,3.29-.35v-.5a2.12,2.12,0,0,0-.42-1.47,1.51,1.51,0,0,0-1.19-.46,3.15,3.15,0,0,0-1,.13,4.46,4.46,0,0,0-.69.3,5.59,5.59,0,0,1-.6.3,1.6,1.6,0,0,1-.69.14,1,1,0,0,1-.6-.17,1.36,1.36,0,0,1-.4-.43l-.62-1.08a6.87,6.87,0,0,1,2.32-1.38,8.14,8.14,0,0,1,2.73-.45,5.08,5.08,0,0,1,1.88.34,4.07,4.07,0,0,1,1.43.95,3.93,3.93,0,0,1,.89,1.44,5.12,5.12,0,0,1,.32,1.82v7.21Zm-4-2.1a2.81,2.81,0,0,0,1.17-.23,3.69,3.69,0,0,0,1-.76V239a8.91,8.91,0,0,0-1.71.14,4.35,4.35,0,0,0-1.05.33,1.33,1.33,0,0,0-.54.46,1.09,1.09,0,0,0-.15.56,1,1,0,0,0,.32.84A1.55,1.55,0,0,0,244.42,241.54Z" transform="translate(-204.17 -217.27)" style="fill:#231f20"/><path d="M261.45,230.73a1.57,1.57,0,0,1-.35.4.8.8,0,0,1-.48.13,1.14,1.14,0,0,1-.55-.16l-.66-.36a4.54,4.54,0,0,0-.86-.36,3.28,3.28,0,0,0-1.09-.17,2.28,2.28,0,0,0-1.57.46,1.5,1.5,0,0,0-.52,1.21,1.18,1.18,0,0,0,.31.82,2.67,2.67,0,0,0,.82.55,8.58,8.58,0,0,0,1.16.43l1.33.43a11.82,11.82,0,0,1,1.33.57,4.51,4.51,0,0,1,1.16.82,3.94,3.94,0,0,1,.81,1.22,4.28,4.28,0,0,1,.31,1.73,5.6,5.6,0,0,1-.39,2.1,4.88,4.88,0,0,1-1.12,1.71,5.31,5.31,0,0,1-1.83,1.14,6.75,6.75,0,0,1-2.46.42,8.11,8.11,0,0,1-1.54-.15,9.5,9.5,0,0,1-1.52-.44,8.85,8.85,0,0,1-1.38-.68,6.33,6.33,0,0,1-1.13-.86l1.12-1.76a.81.81,0,0,1,.34-.32.91.91,0,0,1,.48-.13,1.25,1.25,0,0,1,.67.21l.77.47a6.39,6.39,0,0,0,1,.47,3.77,3.77,0,0,0,1.32.21,2.51,2.51,0,0,0,1.59-.45,1.72,1.72,0,0,0,.57-1.43,1.32,1.32,0,0,0-.32-.92,2.27,2.27,0,0,0-.81-.59,6.43,6.43,0,0,0-1.15-.41c-.44-.12-.88-.26-1.33-.4a9.33,9.33,0,0,1-1.32-.53,4.15,4.15,0,0,1-1.15-.84,3.81,3.81,0,0,1-.82-1.29,5.06,5.06,0,0,1-.31-1.91,4.6,4.6,0,0,1,.36-1.78,4.68,4.68,0,0,1,1.08-1.54,5.25,5.25,0,0,1,1.75-1.09,6.47,6.47,0,0,1,2.37-.4,8.61,8.61,0,0,1,1.45.11,7.9,7.9,0,0,1,2.53.89,5.51,5.51,0,0,1,1,.72Z" transform="translate(-204.17 -217.27)" style="fill:#231f20"/><path d="M279.66,239.45a.86.86,0,0,1,.27.05.66.66,0,0,1,.25.17l1.49,1.57a6.17,6.17,0,0,1-2.45,1.93,8.63,8.63,0,0,1-3.49.65,8.31,8.31,0,0,1-3.31-.63,7.19,7.19,0,0,1-2.48-1.73,7.62,7.62,0,0,1-1.56-2.63,9.76,9.76,0,0,1-.55-3.3,8.59,8.59,0,0,1,.63-3.33,7.61,7.61,0,0,1,1.74-2.62,7.8,7.8,0,0,1,2.67-1.71,9.31,9.31,0,0,1,3.44-.61,8.59,8.59,0,0,1,1.72.16,7.8,7.8,0,0,1,1.51.44,7.16,7.16,0,0,1,1.29.68,6.39,6.39,0,0,1,1.05.87l-1.27,1.71a2.57,2.57,0,0,1-.29.28.8.8,0,0,1-.47.13.85.85,0,0,1-.38-.09l-.38-.22-.44-.28a2.92,2.92,0,0,0-.56-.27,4.44,4.44,0,0,0-.77-.22,5.19,5.19,0,0,0-1-.09,4.72,4.72,0,0,0-1.87.36,4.07,4.07,0,0,0-1.45,1,4.67,4.67,0,0,0-1,1.63,6.49,6.49,0,0,0-.34,2.14,6.9,6.9,0,0,0,.34,2.22,5,5,0,0,0,.93,1.63,3.9,3.9,0,0,0,1.36,1,4.06,4.06,0,0,0,1.67.35,8.7,8.7,0,0,0,.93,0,3.81,3.81,0,0,0,.79-.17,4.32,4.32,0,0,0,.69-.32,4.58,4.58,0,0,0,.66-.48,1.12,1.12,0,0,1,.29-.19A.71.71,0,0,1,279.66,239.45Z" transform="translate(-204.17 -217.27)" style="fill:#231f20"/><path d="M283.39,243.64V227h3.45v6.13a5.33,5.33,0,0,1,1.35-.86,4.16,4.16,0,0,1,1.74-.33,4,4,0,0,1,1.67.33,3.41,3.41,0,0,1,1.23.91,3.82,3.82,0,0,1,.76,1.39,5.78,5.78,0,0,1,.26,1.75v7.33H290.4v-7.33A2,2,0,0,0,290,235a1.41,1.41,0,0,0-1.15-.47,2.34,2.34,0,0,0-1.07.25,4.12,4.12,0,0,0-1,.65v8.22Z" transform="translate(-204.17 -217.27)" style="fill:#231f20"/><path d="M304.26,243.64a1.61,1.61,0,0,1-.74-.13,1,1,0,0,1-.42-.56l-.24-.63c-.29.24-.57.46-.84.65a5.59,5.59,0,0,1-.82.47,4.49,4.49,0,0,1-.92.29,5.85,5.85,0,0,1-1.07.09,5,5,0,0,1-1.44-.2,3.12,3.12,0,0,1-1.09-.61,2.78,2.78,0,0,1-.7-1,3.7,3.7,0,0,1-.24-1.38,2.85,2.85,0,0,1,.31-1.26,3.14,3.14,0,0,1,1.08-1.18,6.94,6.94,0,0,1,2.07-.89,12.6,12.6,0,0,1,3.28-.35v-.5a2.12,2.12,0,0,0-.42-1.47,1.5,1.5,0,0,0-1.18-.46,3.11,3.11,0,0,0-1,.13,4.6,4.6,0,0,0-.7.3,4.69,4.69,0,0,1-.59.3,1.67,1.67,0,0,1-.69.14,1.09,1.09,0,0,1-.61-.17,1.36,1.36,0,0,1-.4-.43l-.62-1.08a7,7,0,0,1,2.32-1.38,8.14,8.14,0,0,1,2.73-.45,5.13,5.13,0,0,1,1.89.34,4,4,0,0,1,1.42.95,4.09,4.09,0,0,1,.9,1.44,5.12,5.12,0,0,1,.31,1.82v7.21Zm-4-2.1a2.87,2.87,0,0,0,1.17-.23,3.66,3.66,0,0,0,1-.76V239a8.72,8.72,0,0,0-1.7.14,4.3,4.3,0,0,0-1.06.33,1.33,1.33,0,0,0-.54.46,1.09,1.09,0,0,0-.15.56,1,1,0,0,0,.32.84A1.59,1.59,0,0,0,300.3,241.54Z" transform="translate(-204.17 -217.27)" style="fill:#231f20"/><path d="M312.34,243.82a4,4,0,0,1-1.45-.24,2.8,2.8,0,0,1-1.71-1.74,4.05,4.05,0,0,1-.22-1.39v-6h-1a.65.65,0,0,1-.46-.18.62.62,0,0,1-.19-.5v-1.35l1.84-.35.67-2.82a.7.7,0,0,1,.76-.53h1.8v3.37h2.81v2.36H312.4v5.73a1.08,1.08,0,0,0,.2.66.67.67,0,0,0,.56.26,1,1,0,0,0,.32,0,.73.73,0,0,0,.22-.09l.18-.09a.53.53,0,0,1,.19,0,.37.37,0,0,1,.25.08.78.78,0,0,1,.2.23l1,1.63a4.8,4.8,0,0,1-1.5.75A5.82,5.82,0,0,1,312.34,243.82Z" transform="translate(-204.17 -217.27)" style="fill:#231f20"/><path d="M228.14,254.14v3h-4.57v13.23h-3.76V257.12h-4.56v-3Z" transform="translate(-204.17 -217.27)" style="fill:#231f20"/><path d="M227.91,270.35V258.81H230a1.8,1.8,0,0,1,.43,0,.87.87,0,0,1,.29.14.64.64,0,0,1,.18.25,2.58,2.58,0,0,1,.1.38l.19,1.08a5.66,5.66,0,0,1,1.43-1.55,2.92,2.92,0,0,1,1.72-.56,2,2,0,0,1,1.27.37l-.45,2.54a.48.48,0,0,1-.17.33.64.64,0,0,1-.36.09,1.85,1.85,0,0,1-.44-.05,3.91,3.91,0,0,0-.65-.05,2.38,2.38,0,0,0-2.14,1.45v7.08Z" transform="translate(-204.17 -217.27)" style="fill:#231f20"/><path d="M244.85,270.35a1.59,1.59,0,0,1-.74-.14,1,1,0,0,1-.42-.55l-.24-.64c-.29.25-.57.46-.84.65a5.21,5.21,0,0,1-.83.47,3.87,3.87,0,0,1-.91.29,5.81,5.81,0,0,1-1.07.1,4.64,4.64,0,0,1-1.44-.21,3,3,0,0,1-1.09-.61,2.66,2.66,0,0,1-.7-1,3.7,3.7,0,0,1-.24-1.38,2.85,2.85,0,0,1,.31-1.26,3,3,0,0,1,1.08-1.18,6.7,6.7,0,0,1,2.07-.88,12.5,12.5,0,0,1,3.28-.36v-.49a2.13,2.13,0,0,0-.42-1.48,1.54,1.54,0,0,0-1.18-.46,3.15,3.15,0,0,0-1,.14,4.93,4.93,0,0,0-.69.3l-.6.3a1.6,1.6,0,0,1-.69.13,1.06,1.06,0,0,1-.6-.17,1.36,1.36,0,0,1-.4-.43l-.62-1.08a7.11,7.11,0,0,1,2.32-1.37,8.14,8.14,0,0,1,2.73-.45,4.93,4.93,0,0,1,1.89.34,4,4,0,0,1,1.42.94,4.28,4.28,0,0,1,.9,1.44,5.41,5.41,0,0,1,.31,1.83v7.21Zm-4-2.11a2.72,2.72,0,0,0,1.17-.23,3.66,3.66,0,0,0,1-.76v-1.58a8.72,8.72,0,0,0-1.7.14,3.88,3.88,0,0,0-1.06.34,1.2,1.2,0,0,0-.54.46,1.07,1.07,0,0,0-.15.56,1,1,0,0,0,.32.83A1.59,1.59,0,0,0,240.89,268.24Z" transform="translate(-204.17 -217.27)" style="fill:#231f20"/><path d="M248.88,270.35V258.81H251a1,1,0,0,1,.54.14.76.76,0,0,1,.31.44l.2.67a6.24,6.24,0,0,1,.69-.58,3.62,3.62,0,0,1,.76-.45,4,4,0,0,1,.88-.29,4.72,4.72,0,0,1,1-.11,4,4,0,0,1,1.67.33,3.41,3.41,0,0,1,1.23.91,3.91,3.91,0,0,1,.76,1.39,5.8,5.8,0,0,1,.25,1.76v7.33h-3.44V263a2,2,0,0,0-.39-1.32,1.4,1.4,0,0,0-1.15-.48,2.47,2.47,0,0,0-1.07.25,4.4,4.4,0,0,0-1,.65v8.23Z" transform="translate(-204.17 -217.27)" style="fill:#231f20"/><path d="M268.84,261.33a.88.88,0,0,1-.29.31.86.86,0,0,1-.38.08,1.19,1.19,0,0,1-.49-.1l-.53-.23a5.85,5.85,0,0,0-.64-.23,2.9,2.9,0,0,0-.81-.1,1.71,1.71,0,0,0-1,.25.81.81,0,0,0-.35.69.71.71,0,0,0,.23.54,2.05,2.05,0,0,0,.61.37,8.16,8.16,0,0,0,.85.31c.32.09.65.2,1,.32a8.5,8.5,0,0,1,1,.42,3.61,3.61,0,0,1,.86.58,2.66,2.66,0,0,1,.6.86,2.73,2.73,0,0,1,.23,1.2,3.91,3.91,0,0,1-.31,1.58,3.33,3.33,0,0,1-.93,1.24,4.51,4.51,0,0,1-1.52.82,7,7,0,0,1-2.09.29,5.91,5.91,0,0,1-1.18-.12,7.35,7.35,0,0,1-1.14-.3,5.25,5.25,0,0,1-1-.45,4.18,4.18,0,0,1-.8-.56l.8-1.27a1.17,1.17,0,0,1,.35-.35,1,1,0,0,1,.52-.13,1.09,1.09,0,0,1,.54.14l.52.29a4.47,4.47,0,0,0,.65.29,2.8,2.8,0,0,0,.94.13,2.64,2.64,0,0,0,.68-.08,1.4,1.4,0,0,0,.44-.23,1,1,0,0,0,.25-.32,1,1,0,0,0,.08-.37.75.75,0,0,0-.24-.57,1.82,1.82,0,0,0-.61-.38,6.59,6.59,0,0,0-.86-.3c-.33-.1-.65-.2-1-.32a7.67,7.67,0,0,1-1-.43,3.6,3.6,0,0,1-.86-.63,3,3,0,0,1-.62-.94,3.59,3.59,0,0,1-.23-1.35,3.54,3.54,0,0,1,.28-1.4,3.41,3.41,0,0,1,.85-1.16,4.18,4.18,0,0,1,1.43-.79,6.06,6.06,0,0,1,2-.3,6.81,6.81,0,0,1,1.21.11,6.94,6.94,0,0,1,1.09.31,5.51,5.51,0,0,1,.94.48,4.46,4.46,0,0,1,.74.59Z" transform="translate(-204.17 -217.27)" style="fill:#231f20"/><path d="M275.13,253.69v16.66h-3.45V253.69Z" transform="translate(-204.17 -217.27)" style="fill:#231f20"/><path d="M285.88,270.35a1.59,1.59,0,0,1-.74-.14,1,1,0,0,1-.42-.55l-.24-.64c-.29.25-.57.46-.84.65a5.59,5.59,0,0,1-.82.47,4,4,0,0,1-.92.29,5.81,5.81,0,0,1-1.07.1,4.64,4.64,0,0,1-1.44-.21,3,3,0,0,1-1.09-.61,2.78,2.78,0,0,1-.7-1,3.7,3.7,0,0,1-.24-1.38,2.85,2.85,0,0,1,.31-1.26,3.21,3.21,0,0,1,1.08-1.18,6.7,6.7,0,0,1,2.07-.88,12.56,12.56,0,0,1,3.28-.36v-.49a2.13,2.13,0,0,0-.42-1.48,1.54,1.54,0,0,0-1.18-.46,3.08,3.08,0,0,0-1,.14,5.08,5.08,0,0,0-.7.3l-.59.3a1.67,1.67,0,0,1-.69.13,1.09,1.09,0,0,1-.61-.17,1.23,1.23,0,0,1-.39-.43l-.63-1.08a7.11,7.11,0,0,1,2.32-1.37,8.14,8.14,0,0,1,2.73-.45,4.93,4.93,0,0,1,1.89.34,4,4,0,0,1,1.42.94,4.28,4.28,0,0,1,.9,1.44,5.17,5.17,0,0,1,.31,1.83v7.21Zm-4-2.11a2.72,2.72,0,0,0,1.17-.23,3.66,3.66,0,0,0,1-.76v-1.58a8.72,8.72,0,0,0-1.7.14,3.88,3.88,0,0,0-1.06.34,1.2,1.2,0,0,0-.54.46,1.07,1.07,0,0,0-.15.56,1,1,0,0,0,.32.83A1.59,1.59,0,0,0,281.92,268.24Z" transform="translate(-204.17 -217.27)" style="fill:#231f20"/><path d="M294,270.53a4,4,0,0,1-1.45-.24,2.79,2.79,0,0,1-1.71-1.75,4,4,0,0,1-.22-1.39v-6h-1a.69.69,0,0,1-.46-.17.66.66,0,0,1-.19-.51v-1.34l1.84-.36.67-2.82a.7.7,0,0,1,.76-.53H294v3.37h2.81v2.36H294v5.73a1.06,1.06,0,0,0,.2.66.65.65,0,0,0,.56.26,1,1,0,0,0,.32,0l.22-.08a.76.76,0,0,1,.18-.09.38.38,0,0,1,.19,0,.37.37,0,0,1,.25.07.78.78,0,0,1,.2.23l1,1.63a4.41,4.41,0,0,1-1.5.75A5.83,5.83,0,0,1,294,270.53Z" transform="translate(-204.17 -217.27)" style="fill:#231f20"/><path d="M304,258.63a6.77,6.77,0,0,1,2.39.41,5.29,5.29,0,0,1,1.85,1.18,5.35,5.35,0,0,1,1.21,1.87,6.82,6.82,0,0,1,.42,2.46,7,7,0,0,1-.42,2.49,5.39,5.39,0,0,1-1.21,1.88,5.31,5.31,0,0,1-1.85,1.19,6.56,6.56,0,0,1-2.39.42,6.63,6.63,0,0,1-2.41-.42,5.49,5.49,0,0,1-1.87-1.19,5.25,5.25,0,0,1-1.21-1.88,6.78,6.78,0,0,1-.43-2.49,6.61,6.61,0,0,1,.43-2.46,5.21,5.21,0,0,1,1.21-1.87,5.47,5.47,0,0,1,1.87-1.18A6.85,6.85,0,0,1,304,258.63Zm0,9.34a2,2,0,0,0,1.75-.84,6.11,6.11,0,0,0,0-5.11,2,2,0,0,0-1.75-.83,2,2,0,0,0-1.79.83,6,6,0,0,0,0,5.11A2,2,0,0,0,304,268Z" transform="translate(-204.17 -217.27)" style="fill:#231f20"/><path d="M311.71,270.35V258.81h2.05a1.74,1.74,0,0,1,.43,0,.78.78,0,0,1,.29.14.64.64,0,0,1,.18.25,2.58,2.58,0,0,1,.1.38l.19,1.08a5.81,5.81,0,0,1,1.43-1.55,2.92,2.92,0,0,1,1.72-.56,2,2,0,0,1,1.27.37l-.45,2.54a.48.48,0,0,1-.17.33.64.64,0,0,1-.36.09,2,2,0,0,1-.45-.05,3.69,3.69,0,0,0-.64-.05,2.39,2.39,0,0,0-2.14,1.45v7.08Z" transform="translate(-204.17 -217.27)" style="fill:#231f20"/><rect x="0.5" y="0.5" width="127.15" height="63.69" style="fill:none;stroke:#231f20;stroke-miterlimit:10"/></svg>